<?xml version="1.0" encoding="UTF-8"?>
<svg id="Laag_1" data-name="Laag 1" xmlns="http://www.w3.org/2000/svg" viewBox="0 0 86 86">
  <defs>
    <style>
      .cls-1 {
        fill: #8f8f8f;
        opacity: .47;
      }
    </style>
  </defs>
  <path class="cls-1" d="M86,43c0,1.11-.45,2.11-1.17,2.83-.73,.72-1.73,1.17-2.83,1.17H47v35c0,2.21-1.79,4-4,4-1.1,0-2.1-.45-2.83-1.17-.72-.72-1.17-1.72-1.17-2.83V47H4c-2.21,0-4-1.79-4-4,0-1.11,.45-2.11,1.17-2.83,.73-.72,1.73-1.17,2.83-1.17H39V4c0-2.21,1.79-4,4-4,1.1,0,2.1,.45,2.83,1.17,.72,.72,1.17,1.72,1.17,2.83V39h35c2.21,0,4,1.79,4,4Z"/>
</svg>